<?xml version="1.0" standalone="no"?>
<!DOCTYPE svg PUBLIC "-//W3C//DTD SVG 20010904//EN"
 "http://www.w3.org/TR/2001/REC-SVG-20010904/DTD/svg10.dtd">
<svg version="1.0" xmlns="http://www.w3.org/2000/svg"
 width="1280.000000pt" height="1239.000000pt" viewBox="0 0 1280.000000 1239.000000"
 preserveAspectRatio="xMidYMid meet">
<metadata>
Created by potrace 1.15, written by Peter Selinger 2001-2017
</metadata>
<g transform="translate(0.000000,1280.000000) scale(0.100000,-0.100000)"
fill="#003472" stroke="none">
<path d="M6300 12379 c-109 -21 -166 -63 -650 -478 -1585 -1358 -2988 -2812
-3762 -3896 -305 -427 -591 -938 -747 -1331 -78 -199 -95 -256 -143 -497 -32
-158 -33 -168 -33 -417 0 -249 1 -259 33 -413 173 -831 752 -1443 1686 -1781
414 -150 815 -223 1277 -233 304 -6 501 7 739 51 69 13 126 23 128 21 6 -5
-186 -157 -491 -388 -407 -308 -462 -353 -558 -453 -88 -94 -129 -150 -172
-242 -30 -62 -32 -75 -32 -172 0 -96 3 -111 33 -180 55 -128 149 -215 280
-259 l62 -21 2467 2 2468 3 69 33 c131 62 207 145 250 274 65 192 12 355 -178
556 -97 103 -183 173 -526 429 -270 202 -365 277 -491 387 -37 33 -40 38 -19
33 402 -93 970 -102 1445 -21 201 34 487 109 681 180 724 262 1227 680 1505
1249 266 548 296 1117 89 1720 -131 379 -294 702 -582 1150 -593 920 -1636
2081 -3020 3362 -609 564 -1394 1239 -1503 1293 -94 47 -198 60 -305 39z"/>
</g>
</svg>
