<?xml version="1.0" standalone="no"?>
<!DOCTYPE svg PUBLIC "-//W3C//DTD SVG 20010904//EN"
 "http://www.w3.org/TR/2001/REC-SVG-20010904/DTD/svg10.dtd">
<svg width="1280" height="1239" xmlns="http://www.w3.org/2000/svg" xmlns:svg="http://www.w3.org/2000/svg" preserveAspectRatio="xMidYMid meet">
<metadata>Created by potrace 1.15, written by Peter Selinger 2001-2017</metadata>
<g id="svg_1" fill="#003472" transform="translate(0,1239) scale(0.10000000149011612,-0.10000000149011612) ">
<path stroke="null" id="svg_2" d="m6293.03384,12249.01157c-124.92903,-23.94582 -190.25889,-71.83746 -744.98963,-545.05244c-1816.62857,-1548.49626 -3424.66003,-3206.45913 -4311.77077,-4442.51947c-349.57206,-486.89831 -677.3675,-1069.57989 -856.16501,-1517.70878c-89.39876,-226.91514 -108.8831,-291.91093 -163.89772,-566.71771c-36.67641,-180.16378 -37.82255,-191.56655 -37.82255,-475.49554c0,-283.92899 1.14614,-295.33176 37.82255,-470.93443c198.28186,-947.57025 861.8957,-1645.41982 1932.38849,-2030.83347c474.50109,-171.04156 934.10239,-254.28179 1463.61809,-265.68456c348.42592,-6.84166 574.21509,7.98194 846.99591,58.15413c79.08351,14.8236 144.41337,26.22637 146.70565,23.94582c6.87683,-5.70139 -213.18165,-179.0235 -562.75371,-442.4275c-466.47812,-351.20534 -529.51571,-402.51781 -639.54495,-516.54551c-100.86013,-107.18604 -147.85179,-171.04156 -197.13572,-275.94705c-34.38414,-70.69718 -36.67641,-85.52078 -36.67641,-196.12766c0,-109.4666 3.43841,-126.57076 37.82255,-205.24987c63.03758,-145.95547 170.77455,-245.15957 320.91861,-295.33176l71.06055,-23.94582l2827.52219,2.28055l2828.66833,3.42083l79.08351,37.62914c150.14406,70.69718 237.25054,165.34018 286.53447,312.43592c74.49896,218.9332 13.75365,404.79836 -204.01255,633.99405c-111.17538,117.44854 -209.74324,197.26793 -602.86853,489.17886c-309.45723,230.33597 -418.34033,315.85675 -562.75371,441.28723c-42.4071,37.62914 -45.84552,43.33053 -21.77662,37.62914c460.74743,-106.04577 1111.75376,-116.30826 1656.16926,-23.94582c230.37372,38.76942 558.16916,124.2902 780.51991,205.24987c829.80384,298.75259 1406.3112,775.38841 1724.93753,1424.20606c304.87268,624.87184 339.25682,1273.68949 102.00627,1961.27656c-150.14406,432.16501 -336.96454,800.4745 -667.05226,1311.31863c-679.65977,1049.05491 -1875.0816,2372.91659 -3461.33645,3833.61152c-697.99798,643.11627 -1597.71623,1412.80329 -1722.64526,1474.37825c-107.73696,53.59302 -226.9353,68.41662 -349.57206,44.47081z"/>
</g>
</svg>