<?xml version="1.0" standalone="no"?>
<!DOCTYPE svg PUBLIC "-//W3C//DTD SVG 20010904//EN"
 "http://www.w3.org/TR/2001/REC-SVG-20010904/DTD/svg10.dtd">
<svg version="1.0" xmlns="http://www.w3.org/2000/svg"
 width="1277.000000pt" height="1280.000000pt" viewBox="0 0 1277.000000 1280.000000"
 preserveAspectRatio="xMidYMid meet">
<metadata>
Created by potrace 1.15, written by Peter Selinger 2001-2017
</metadata>
<g transform="translate(0.000000,1280.000000) scale(0.100000,-0.100000)"
fill="#cca4e3" stroke="none">
<path d="M6250 12790 c-431 -40 -813 -148 -1195 -336 -1058 -521 -1672 -1516
-1596 -2587 21 -297 64 -501 181 -862 71 -220 99 -326 100 -377 0 -50 -24 -50
-167 -2 -297 98 -488 134 -764 141 -120 4 -241 1 -310 -6 -886 -92 -1695 -692
-2145 -1591 -170 -338 -278 -691 -330 -1075 -22 -162 -25 -581 -6 -725 72
-527 236 -948 526 -1354 519 -725 1298 -1123 2256 -1152 1014 -31 2037 382
2729 1102 186 193 333 388 485 641 73 121 90 142 99 119 7 -18 -23 -260 -58
-461 -177 -1026 -522 -1788 -1065 -2349 -389 -402 -847 -690 -1475 -928 -182
-69 -402 -136 -708 -217 -266 -71 -426 -123 -552 -180 -197 -90 -319 -202
-340 -313 -9 -47 19 -134 48 -153 74 -47 446 -80 1197 -107 450 -16 2685 -16
3395 0 2519 57 4101 153 4264 259 21 13 22 20 16 61 -15 98 -58 159 -150 212
-94 53 -244 100 -840 265 -1636 453 -2511 1252 -2929 2675 -145 495 -233 963
-197 1053 27 68 102 12 253 -187 351 -463 616 -720 1009 -982 453 -302 953
-483 1499 -545 167 -19 544 -16 705 5 342 46 636 128 910 255 920 424 1513
1237 1645 2256 39 302 37 646 -6 925 -78 510 -291 1011 -593 1395 -545 692
-1276 1105 -2006 1132 -351 13 -623 -48 -952 -213 -96 -48 -177 -83 -183 -79
-19 12 -6 52 88 273 49 114 99 236 110 272 147 455 163 1081 42 1612 -46 203
-106 367 -205 563 -443 881 -1188 1420 -2141 1550 -140 19 -507 28 -644 15z"/>
</g>
</svg>
