<?xml version="1.0" standalone="no"?>
<!DOCTYPE svg PUBLIC "-//W3C//DTD SVG 20010904//EN"
 "http://www.w3.org/TR/2001/REC-SVG-20010904/DTD/svg10.dtd">
<svg version="1.0" xmlns="http://www.w3.org/2000/svg"
 width="1280.000000pt" height="1280.000000pt" viewBox="0 0 1280.000000 1280.000000"
 preserveAspectRatio="xMidYMid meet">
<metadata>
Created by potrace 1.15, written by Peter Selinger 2001-2017
</metadata>
<g transform="translate(0.000000,1280.000000) scale(0.100000,-0.100000)"
fill="#be002f" stroke="none">
<path d="M3470 11389 c-403 -40 -776 -147 -1135 -328 -300 -151 -512 -306
-755 -550 -240 -241 -377 -433 -525 -736 -225 -458 -323 -968 -295 -1523 50
-963 446 -1820 1269 -2747 149 -169 514 -532 711 -709 85 -77 252 -230 370
-341 480 -450 699 -633 1540 -1290 658 -514 917 -732 1180 -995 86 -85 195
-202 244 -260 100 -120 247 -337 290 -428 16 -34 32 -62 36 -62 3 0 10 13 16
29 22 58 128 225 214 339 197 261 462 522 891 878 150 124 239 195 908 719
556 436 844 679 1193 1007 101 95 282 263 403 373 585 531 1005 1002 1321
1480 365 554 576 1091 666 1695 20 137 23 192 23 485 0 354 -7 433 -61 690
-184 870 -749 1582 -1569 1976 -305 146 -607 236 -965 286 -176 24 -605 24
-780 0 -327 -46 -587 -125 -875 -267 -276 -135 -474 -280 -696 -506 -297 -304
-527 -701 -651 -1121 -18 -62 -35 -113 -38 -113 -3 0 -18 44 -33 98 -91 313
-273 671 -475 932 -90 116 -286 316 -403 410 -371 299 -837 496 -1339 565
-138 19 -544 28 -680 14z"/>
</g>
</svg>
